<svg 
    viewBox="0 0 128 128"
    xmlns="http://www.w3.org/2000/svg">
    <g>
        <path fill="rgba(55, 54, 54, 1)" d="m71 82.417a1.75 1.75 0 0 0 -1.75 1.75v14.666a1.75 1.75 0 0 0 3.5 0v-14.666a1.75 1.75 0 0 0 -1.75-1.75z"/>
        <path fill="rgba(55, 54, 54, 1)" d="m103.808 119.75h-13.3l-4.922-12.037a1.748 1.748 0 0 0 -1.619-1.088h-5.217v-70.465a1.75 1.75 0 0 0 -1.75-1.75h-11.25v-4.1c4.486-.555 6.279-3.2 6.963-4.849 2.194-5.3-.88-13.6-7.476-20.195a1.748 1.748 0 0 0 -2.474 0c-6.6 6.594-9.67 14.9-7.476 20.2.684 1.651 2.477 4.294 6.963 4.849v4.1h-11.25a1.75 1.75 0 0 0 -1.75 1.75v70.465h-5.217a1.748 1.748 0 0 0 -1.619 1.088l-4.922 12.032h-13.3a1.75 1.75 0 0 0 0 3.5h79.616a1.75 1.75 0 0 0 0-3.5zm-45.287-95.632c-1.487-3.589.846-9.847 5.479-15.067 4.633 5.22 6.966 11.478 5.479 15.067-.726 1.755-2.423 2.681-5.024 2.779a1.578 1.578 0 0 0 -.91 0c-2.601-.097-4.298-1.024-5.024-2.779zm7.729 24.882a4.673 4.673 0 0 0 -4.667 4.667v15.538a1.708 1.708 0 0 1 -3.416 0v-3.583a4.464 4.464 0 0 0 -4.459-4.459.96.96 0 0 1 -.958-.959v-22.291h22.5v16.833a2.167 2.167 0 1 1 -4.333 0v-1.083a4.673 4.673 0 0 0 -4.667-4.663zm-13.5 15.553a4.4 4.4 0 0 0 .958.11.96.96 0 0 1 .959.959v3.583a5.208 5.208 0 0 0 10.416 0v-15.542a1.167 1.167 0 0 1 2.334 0v1.083a5.664 5.664 0 0 0 7.833 5.235v46.644h-22.5zm-11.478 55.2 3.936-9.625h5.744.048s.032 0 .048 0h25.9.048s.032 0 .048 0h5.744l3.936 9.625z"/>
    </g>
</svg>